<svg width="44" height="50" viewBox="0 0 44 50" fill="none" xmlns="http://www.w3.org/2000/svg">
<path d="M12.3377 0C14.0437 0 15.4221 1.39648 15.4221 3.125V6.25H27.7597V3.125C27.7597 1.39648 29.1381 0 30.8442 0C32.5502 0 33.9286 1.39648 33.9286 3.125V6.25H38.5552C41.1095 6.25 43.1818 8.34961 43.1818 10.9375V15.625H0V10.9375C0 8.34961 2.07234 6.25 4.62662 6.25H9.25325V3.125C9.25325 1.39648 10.6316 0 12.3377 0ZM0 18.75H43.1818V45.3125C43.1818 47.9004 41.1095 50 38.5552 50H4.62662C2.07234 50 0 47.9004 0 45.3125V18.75ZM7.71104 25C6.86282 25 6.16883 25.7031 6.16883 26.5625V35.9375C6.16883 36.7969 6.86282 37.5 7.71104 37.5H16.9643C17.8125 37.5 18.5065 36.7969 18.5065 35.9375V26.5625C18.5065 25.7031 17.8125 25 16.9643 25H7.71104Z" fill="#078BFB"/>
</svg>
