<svg width="80" height="62" viewBox="0 0 80 62" fill="none" xmlns="http://www.w3.org/2000/svg">
<path d="M42.9167 10.2411C44.5 9.27232 45.5556 7.51473 45.5556 5.53571C45.5556 2.47723 43.0694 0 40 0C36.9306 0 34.4444 2.47723 34.4444 5.53571C34.4444 7.52857 35.5 9.27232 37.0833 10.2411L29.125 26.1009C27.8611 28.6196 24.5833 29.3393 22.375 27.5817L10 17.7143C10.6944 16.7871 11.1111 15.6384 11.1111 14.3929C11.1111 11.3344 8.625 8.85714 5.55556 8.85714C2.48611 8.85714 0 11.3344 0 14.3929C0 17.4513 2.48611 19.9286 5.55556 19.9286C5.58333 19.9286 5.625 19.9286 5.65278 19.9286L12 54.7205C12.7639 58.9277 16.4444 62 20.75 62H59.25C63.5417 62 67.2222 58.9415 68 54.7205L74.3472 19.9286C74.375 19.9286 74.4167 19.9286 74.4445 19.9286C77.5139 19.9286 80 17.4513 80 14.3929C80 11.3344 77.5139 8.85714 74.4445 8.85714C71.375 8.85714 68.8889 11.3344 68.8889 14.3929C68.8889 15.6384 69.3056 16.7871 70 17.7143L57.625 27.5817C55.4167 29.3393 52.1389 28.6196 50.875 26.1009L42.9167 10.2411Z" fill="url(#paint0_linear_861_326)"/>
<defs>
<linearGradient id="paint0_linear_861_326" x1="40" y1="0" x2="40" y2="62" gradientUnits="userSpaceOnUse">
<stop offset="0.289207" stop-color="#6FECD0"/>
<stop offset="1" stop-color="#078BFB"/>
</linearGradient>
</defs>
</svg>
