<svg width="176" height="51" viewBox="0 0 176 51" fill="none" xmlns="http://www.w3.org/2000/svg">
<g clip-path="url(#clip0_888_515)">
<path d="M25.7098 0.418038C22.3919 0.415402 19.106 1.06207 16.0396 2.32113C12.9733 3.58019 10.1865 5.42699 7.8385 7.75606C5.4905 10.0851 3.62718 12.8509 2.35502 15.8954C1.08286 18.9399 0.426784 22.2036 0.424133 25.5C0.426784 28.7965 1.08286 32.0601 2.35502 35.1046C3.62718 38.1491 5.4905 40.9149 7.8385 43.2439C10.1865 45.573 12.9733 47.4198 16.0396 48.6789C19.106 49.9379 22.3919 50.5846 25.7098 50.582C29.0277 50.5846 32.3136 49.9379 35.38 48.6789C38.4463 47.4198 41.2331 45.573 43.5811 43.2439C45.9291 40.9149 47.7924 38.1491 49.0645 35.1046C50.3367 32.0601 50.9928 28.7965 50.9954 25.5C50.9928 22.2036 50.3367 18.9399 49.0645 15.8954C47.7924 12.8509 45.9291 10.0851 43.5811 7.75606C41.2331 5.42699 38.4463 3.58019 35.38 2.32113C32.3136 1.06207 29.0277 0.415402 25.7098 0.418038ZM41.9921 41.6511C40.3393 43.223 38.5167 44.6086 36.5577 45.783C34.894 46.8205 31.6331 48.5261 29.5731 47.8673C28.1855 47.4241 27.4888 45.4468 27.19 44.1769C26.6608 41.4849 26.438 38.7424 26.526 36.001C26.526 34.3213 26.5934 32.6475 26.6944 30.9762C27.8422 31.0928 29.0015 30.9468 30.0837 30.5496C31.166 30.1524 32.1424 29.5145 32.9383 28.6846C33.7361 27.8134 32.4335 26.5158 31.634 27.3903C31.0206 28.033 30.2663 28.5264 29.4297 28.8324C28.5931 29.1383 27.6969 29.2486 26.8105 29.1545C26.9889 26.5426 27.2001 23.9332 27.2842 21.3138C27.3473 19.3465 24.2733 19.3524 24.2111 21.3138C24.1471 23.3028 24.0149 25.286 23.8795 27.2675C22.2368 27.4514 20.7584 25.939 19.656 24.7066C18.865 23.8229 17.5656 25.1246 18.3524 26C19.783 27.6027 21.695 29.162 23.7533 29.1252C23.5774 31.7613 23.4309 34.3991 23.4629 37.0528C23.3979 40.0261 23.7348 42.9947 24.4644 45.8791C24.7087 46.7531 25.0901 47.5835 25.5945 48.3396C19.5267 48.3271 13.7122 45.9213 9.42906 41.6511C7.28473 39.5366 5.58435 37.0201 4.42654 34.2476C3.26874 31.475 2.67654 28.5017 2.68435 25.5C2.67659 22.4983 3.26884 19.525 4.42664 16.7525C5.58445 13.98 7.28476 11.4635 9.42906 9.3489C11.564 7.22092 14.1021 5.53424 16.8967 4.38624C19.6914 3.23823 22.6873 2.65165 25.7114 2.66037C28.7355 2.6516 31.7315 3.23818 34.5262 4.38619C37.3209 5.53419 39.8589 7.22089 41.9938 9.3489C44.1381 11.4635 45.8385 13.98 46.9963 16.7525C48.1541 19.525 48.7463 22.4983 48.7385 25.5C48.7457 28.502 48.1527 31.4756 46.9941 34.2482C45.8354 37.0207 44.134 39.537 41.9888 41.6511H41.9921Z" fill="url(#paint0_linear_888_515)"/>
<path d="M25.9597 9.29785C20.8122 13.4782 25.4918 17.6661 25.4918 17.6661L25.9125 13.9874L26.4258 17.6661C30.7756 12.9933 25.9597 9.29785 25.9597 9.29785Z" fill="url(#paint1_linear_888_515)"/>
<path d="M18.1068 10.0069C15.4981 14.4974 20.0994 16.2774 20.0994 16.2774L19.3825 13.4598L20.7861 16.0199C22.6744 11.3931 18.1068 10.0069 18.1068 10.0069Z" fill="url(#paint2_linear_888_515)"/>
<path d="M33.6713 10.0069C33.6713 10.0069 29.1035 11.3931 30.9919 16.0224L32.3955 13.4623L31.6786 16.2799C31.6786 16.2799 36.2825 14.4974 33.6713 10.0069Z" fill="url(#paint3_linear_888_515)"/>
<path d="M38.595 23.5503L40.7416 22.9584L38.8163 24.0586C39.2523 24.2768 39.7336 24.3907 40.2218 24.3913C40.7099 24.3919 41.1915 24.2792 41.6281 24.0623C42.0647 23.8453 42.4444 23.53 42.7366 23.1415C43.0289 22.7531 43.2258 22.3021 43.3117 21.8247C42.8968 21.5844 42.4335 21.4382 41.9551 21.3965C41.4767 21.3548 40.9949 21.4187 40.5442 21.5836C40.0935 21.7485 39.6851 22.0103 39.3481 22.3503C39.0111 22.6903 38.754 23.1001 38.595 23.5503Z" fill="url(#paint4_linear_888_515)"/>
<path d="M12.4973 24.0594L10.5718 22.9592L12.7185 23.5511C12.5596 23.1014 12.3026 22.6921 11.966 22.3524C11.6293 22.0128 11.2213 21.7512 10.7711 21.5863C10.3209 21.4214 9.83972 21.3574 9.36174 21.3988C8.88377 21.4401 8.42084 21.5858 8.0061 21.8255C8.09217 22.3024 8.28904 22.7527 8.58105 23.1408C8.87306 23.5288 9.25215 23.8438 9.6882 24.0607C10.1242 24.2776 10.6052 24.3904 11.0928 24.3902C11.5805 24.39 12.0614 24.2767 12.4973 24.0594Z" fill="url(#paint5_linear_888_515)"/>
<path d="M33.2522 30.9537L34.2309 32.8549L32.8112 31.2605C32.6894 31.7122 32.6752 32.186 32.7697 32.6441C32.8643 33.1023 33.0649 33.5322 33.3558 33.8999C33.6467 34.2675 34.0199 34.5628 34.4457 34.7622C34.8715 34.9616 35.3381 35.0597 35.8087 35.0487C35.9569 34.6125 36.0062 34.149 35.9531 33.6916C35.9 33.2342 35.7458 32.7941 35.5016 32.4028C35.2573 32.0115 34.9289 31.6787 34.5401 31.4281C34.1512 31.1776 33.7115 31.0156 33.2522 30.9537Z" fill="url(#paint6_linear_888_515)"/>
<path d="M16.9177 35.0203C17.3878 35.0413 17.8564 34.9533 18.2864 34.7631C18.7163 34.5729 19.0957 34.2858 19.3945 33.9246C19.6934 33.5633 19.9034 33.1379 20.0079 32.682C20.1124 32.2261 20.1087 31.7523 19.9968 31.2981L18.5418 32.8615L19.5626 30.9821C19.1022 31.034 18.659 31.1865 18.2648 31.4285C17.8706 31.6705 17.5352 31.9961 17.2825 32.382C17.0297 32.7679 16.866 33.2045 16.8029 33.6606C16.7399 34.1167 16.779 34.581 16.9177 35.0203Z" fill="url(#paint7_linear_888_515)"/>
<path d="M36.1142 19.0314L34.0104 22.6265C41.0959 21.4919 39.4188 14.9263 39.4188 14.9263C31.9697 15.0809 33.1857 21.9835 33.1857 21.9835L36.1142 19.0314Z" fill="url(#paint8_linear_888_515)"/>
<path d="M35.8786 29.0491L39.4626 28.866L36.0267 29.932C41.181 33.2971 43.9529 28.1679 43.9529 28.1679C39.1394 23.9725 35.8786 29.0491 35.8786 29.0491Z" fill="url(#paint9_linear_888_515)"/>
<path d="M7.46082 28.1679C7.46082 28.1679 10.2319 33.2971 15.3861 29.932L11.9502 28.866L15.5343 29.0491C15.5343 29.0491 12.2742 23.9725 7.46082 28.1679Z" fill="url(#paint10_linear_888_515)"/>
<path d="M12.4391 15.0392C12.4391 15.0392 10.7628 21.6047 17.8475 22.7393L15.7437 19.1442L18.6756 22.098C18.6756 22.098 19.889 15.1947 12.4391 15.0392Z" fill="url(#paint11_linear_888_515)"/>
<path d="M80.62 15.3444C80.7959 15.1688 81.0719 15.1136 81.0719 14.8695V13.3185C81.0051 13.0317 80.8465 12.7742 80.62 12.5845C80.3861 12.3813 80.0937 12.2564 79.7844 12.2275H65.1068C64.8384 12.2586 64.5903 12.3844 64.4075 12.582C64.2174 12.7823 64.1045 13.0428 64.0886 13.3177V14.8686C64.0886 15.1127 64.2308 15.168 64.4092 15.346C64.5876 15.5241 64.8627 15.4405 65.1076 15.4405H70.5589V30.6979C70.5575 30.81 70.5802 30.9212 70.6257 31.0239C70.6711 31.1265 70.7381 31.2184 70.8223 31.2931C70.9091 31.372 71.0115 31.4321 71.1228 31.4696C71.2342 31.5072 71.3523 31.5214 71.4694 31.5113H73.4243C73.7014 31.5317 73.9769 31.4554 74.2035 31.2956C74.381 31.1201 74.604 30.9428 74.604 30.6979V15.4413H79.7861C80.0301 15.4413 80.4424 15.5208 80.62 15.3444Z" fill="#078BFB"/>
<path d="M87.0761 20.4611C86.0556 19.9134 84.9119 19.6317 83.7521 19.6426C82.5928 19.6282 81.4495 19.9128 80.434 20.4686C79.4476 20.996 78.6205 21.7752 78.0382 22.726C77.4617 23.6629 77.1585 24.7405 77.1623 25.8387C77.1564 26.9414 77.4651 28.0232 78.0526 28.9589C78.6376 29.9191 79.4699 30.707 80.4635 31.2413C81.4713 31.7897 82.6031 32.074 83.7521 32.0673C84.9149 32.0787 86.0604 31.7879 87.0752 31.2238C88.0588 30.6865 88.8847 29.9042 89.4718 28.9538C90.054 28.018 90.3607 26.9388 90.3571 25.8387C90.3601 24.7369 90.056 23.6558 89.4786 22.7151C88.8921 21.7662 88.0632 20.9885 87.0761 20.4611ZM83.7521 28.9639C83.205 28.9748 82.6653 28.8363 82.1919 28.5634C81.7465 28.314 81.383 27.9421 81.1451 27.4924C80.8767 26.9842 80.743 26.4166 80.7563 25.8429C80.7434 25.2667 80.8805 24.6971 81.1543 24.1891C81.3864 23.7433 81.746 23.3757 82.1877 23.1323C82.6713 22.8702 83.2156 22.7387 83.7664 22.7511C84.3117 22.7398 84.8503 22.8731 85.3265 23.1373C85.7696 23.3849 86.1303 23.7557 86.3642 24.2041C86.6261 24.7108 86.7577 25.2741 86.747 25.8437C86.7564 26.407 86.6255 26.9639 86.3658 27.4648C86.1235 27.9249 85.7554 28.3077 85.3038 28.5693C84.8328 28.8389 84.2965 28.9756 83.7529 28.9647L83.7521 28.9639Z" fill="#078BFB"/>
<path d="M103.313 28.8719V13.0285C103.273 12.728 103.137 12.4484 102.923 12.2317C102.713 12.0149 102.436 11.8728 102.137 11.827H102.093C102.056 11.827 101.329 11.8212 101.292 11.827H100.888C100.566 11.8279 100.258 11.9552 100.031 12.1812C99.8037 12.4071 99.6758 12.7132 99.6751 13.0326V20.4937C99.6751 20.3624 99.15 20.2487 98.9253 20.1517C97.6899 19.6327 96.3133 19.5473 95.0224 19.9093C94.5143 20.0447 94.0275 20.2492 93.5758 20.5171C92.681 21.062 91.9494 21.8351 91.457 22.756C90.9504 23.7065 90.6901 24.7674 90.6996 25.8428C90.6627 27.44 91.2486 28.9896 92.3346 30.1678C92.8469 30.7479 93.4762 31.2144 94.1817 31.5373C94.8957 31.8571 95.6707 32.0196 96.4538 32.0138C97.2964 32.0166 98.1294 31.836 98.8942 31.4846C99.2931 31.3021 99.6677 31.0709 100.009 30.7965C100.27 31.1565 100.618 31.445 101.021 31.6351C101.424 31.8251 101.869 31.9106 102.315 31.8834C103.014 31.8729 103.69 31.636 104.24 31.2087C104.269 31.1878 104.26 31.1644 104.285 31.1401C104.369 31.0562 104.435 30.9555 104.477 30.8445C104.519 30.7335 104.537 30.6148 104.53 30.4963V30.0081C104.533 29.8843 104.51 29.7613 104.464 29.6464C104.418 29.5315 104.348 29.427 104.26 29.3392C104.162 29.2391 104.04 29.1646 103.906 29.1223C103.772 29.08 103.629 29.0713 103.491 29.0968C103.462 29.1002 103.433 29.0962 103.406 29.0852C103.379 29.0742 103.356 29.0565 103.338 29.0339C103.32 29.0113 103.309 28.9846 103.304 28.9562C103.3 28.9278 103.303 28.8988 103.313 28.8719ZM99.6743 27.4506C99.3459 27.9159 98.9081 28.2944 98.3988 28.5531C97.8896 28.8119 97.3245 28.9432 96.7525 28.9355C96.3173 28.9437 95.8891 28.8254 95.5206 28.5951C95.1381 28.3533 94.8364 28.0042 94.6538 27.5918C94.4176 27.0508 94.3006 26.4659 94.3105 25.8762C94.2932 25.2829 94.4081 24.693 94.6471 24.1489C94.8285 23.7351 95.1226 23.3799 95.4962 23.1231C95.845 22.8934 96.2559 22.775 96.6743 22.7837C97.3239 22.7695 97.9663 22.9212 98.5399 23.2242C98.9927 23.4868 99.6819 23.8095 99.6819 24.2192L99.6743 27.4506Z" fill="#078BFB"/>
<path d="M114.841 20.4611C113.82 19.9133 112.677 19.6317 111.517 19.6426C110.358 19.6282 109.214 19.9128 108.199 20.4686C107.212 20.9959 106.385 21.7752 105.803 22.726C105.226 23.6628 104.923 24.7405 104.927 25.8387C104.921 26.9415 105.23 28.0234 105.818 28.9589C106.403 29.9191 107.235 30.707 108.229 31.2413C109.237 31.7897 110.369 32.074 111.518 32.0673C112.68 32.0787 113.826 31.7879 114.841 31.2237C115.824 30.6865 116.65 29.9042 117.237 28.9538C117.82 28.018 118.126 26.9388 118.123 25.8387C118.126 24.7369 117.822 23.6558 117.244 22.7151C116.657 21.766 115.828 20.9883 114.841 20.4611ZM111.517 28.9639C110.97 28.9747 110.43 28.8362 109.957 28.5634C109.511 28.3138 109.148 27.942 108.91 27.4924C108.642 26.9841 108.508 26.4165 108.522 25.8429C108.509 25.2667 108.646 24.6969 108.92 24.1891C109.152 23.7433 109.511 23.3756 109.953 23.1323C110.437 22.8702 110.981 22.7387 111.532 22.7511C112.077 22.7398 112.616 22.8731 113.092 23.1373C113.535 23.3849 113.896 23.7557 114.13 24.2041C114.392 24.7108 114.523 25.2741 114.513 25.8437C114.522 26.407 114.391 26.964 114.131 27.4648C113.889 27.9249 113.521 28.3077 113.069 28.5693C112.598 28.8392 112.061 28.9759 111.517 28.9647V28.9639Z" fill="#078BFB"/>
<path d="M129.09 21.1023C128.03 20.4947 126.889 20.0398 125.7 19.7512C122.62 18.9862 122.62 17.7539 122.62 17.3484C122.613 16.9781 122.719 16.6144 122.924 16.305C123.131 16.0013 123.424 15.7646 123.765 15.6236C124.201 15.4398 124.672 15.3495 125.146 15.3586C126.549 15.3608 127.917 15.7912 129.066 16.5917C129.233 16.7078 129.432 16.7684 129.636 16.7648C129.849 16.7667 130.057 16.6969 130.225 16.5667C130.397 16.4344 130.516 16.2465 130.562 16.0358L130.969 14.591C131.008 14.4339 131.005 14.2693 130.96 14.1139C130.914 13.9584 130.829 13.8176 130.711 13.7057C130.687 13.6817 130.661 13.6593 130.633 13.6388C129.918 13.1234 129.122 12.728 128.277 12.4683C127.361 12.1714 126.403 12.0201 125.439 12.0201C124.292 12.0001 123.155 12.2254 122.104 12.6806C121.171 13.0918 120.371 13.752 119.793 14.5877C119.244 15.4038 118.956 16.3653 118.966 17.3467C118.966 20.2537 120.801 22.2235 124.421 23.1992C125.263 23.4057 126.081 23.7008 126.861 24.0795C127.277 24.2821 127.632 24.5905 127.89 24.9733C128.101 25.3631 128.203 25.8019 128.185 26.2441C128.196 26.6881 128.072 27.1251 127.83 27.4982C127.563 27.8749 127.196 28.1705 126.77 28.3519C126.253 28.5738 125.693 28.6832 125.13 28.6729C124.281 28.6764 123.439 28.5132 122.654 28.1927C121.868 27.8722 121.154 27.4006 120.553 26.8051C120.46 26.7087 120.348 26.6319 120.225 26.5792C120.101 26.5264 119.968 26.4989 119.834 26.4983C119.61 26.494 119.393 26.569 119.221 26.7097C119.048 26.8504 118.932 27.0476 118.893 27.2658L118.501 28.8635C118.496 28.8861 118.491 28.9086 118.488 28.9304C118.468 29.0565 118.476 29.1853 118.509 29.3085C118.542 29.4317 118.601 29.5466 118.681 29.6461C118.695 29.6628 118.709 29.6787 118.724 29.6946C119.012 29.9956 119.335 30.2617 119.686 30.4871C121.314 31.5291 123.22 32.0605 125.156 32.0122C126.315 32.0255 127.462 31.7788 128.512 31.2906C129.508 30.8288 130.354 30.0978 130.952 29.1812C131.552 28.2445 131.862 27.1542 131.846 26.0443C131.868 25.0407 131.631 24.0482 131.157 23.1616C130.657 22.3105 129.945 21.6013 129.09 21.1023Z" fill="#078BFB"/>
<path d="M149.62 19.7002C148.733 19.7437 147.869 19.9998 147.103 20.4468C146.856 20.5888 146.621 20.7489 146.398 20.9259L146.379 20.7294C146.364 20.4977 146.262 20.28 146.094 20.119C145.926 19.958 145.703 19.8652 145.469 19.8591H145.41C145.367 19.8591 145.326 19.9201 145.281 19.9285L143.857 20.2202C143.654 20.2604 143.593 20.3783 143.456 20.5338C143.32 20.6893 143.347 20.9259 143.347 21.1449V30.697C143.347 30.9419 143.326 31.115 143.502 31.2931C143.567 31.3697 143.65 31.4295 143.743 31.4674C143.837 31.5052 143.938 31.52 144.039 31.5105H145.79C146.069 31.5307 146.347 31.4545 146.577 31.2948C146.754 31.1192 146.986 30.9419 146.986 30.697V25.0293C146.931 24.7158 146.998 24.3936 147.173 24.1272C147.385 23.8445 147.667 23.6224 147.993 23.4834C148.348 23.3263 148.731 23.2394 149.12 23.2276C149.261 23.228 149.402 23.2406 149.54 23.2652C149.672 23.2846 149.805 23.2765 149.933 23.2413C150.061 23.2062 150.179 23.1448 150.282 23.0612C150.391 22.9736 150.479 22.8627 150.538 22.7368C150.598 22.6109 150.629 22.4731 150.628 22.3338V20.6375C150.626 20.5127 150.6 20.3894 150.551 20.2746C150.502 20.1599 150.43 20.0559 150.341 19.9686C150.246 19.8772 150.133 19.8062 150.009 19.76C149.885 19.7138 149.753 19.6935 149.62 19.7002Z" fill="#078BFB"/>
<path d="M162.626 19.8616H160.992C160.802 19.8796 160.621 19.952 160.472 20.07C160.322 20.188 160.211 20.3465 160.15 20.5263L157.637 26.5459L155.112 20.5213C155.052 20.3393 154.938 20.1793 154.786 20.0618C154.634 19.9443 154.45 19.8746 154.257 19.8616H152.638C152.366 19.9028 152.119 20.0435 151.945 20.2562C151.764 20.4567 151.664 20.7172 151.664 20.987C151.664 21.0544 151.671 21.1216 151.685 21.1876L151.715 21.318C151.725 21.3598 151.738 21.4006 151.755 21.4401L156.088 31.1385C156.16 31.3693 156.308 31.569 156.509 31.7053C156.647 31.7747 156.794 31.9135 156.944 31.9135H158.33C158.48 31.9135 158.625 31.7764 158.764 31.707C158.962 31.5915 159.111 31.4093 159.185 31.1936L163.519 21.4719C163.535 21.4304 163.549 21.3876 163.558 21.344L163.588 21.2219C163.602 21.1647 163.609 21.106 163.609 21.0472C163.61 20.759 163.51 20.4794 163.327 20.2562C163.151 20.0418 162.901 19.901 162.626 19.8616Z" fill="#078BFB"/>
<path d="M175.718 20.2554C175.545 20.0434 175.299 19.903 175.027 19.8616H173.393C173.203 19.8797 173.023 19.9522 172.873 20.0702C172.724 20.1881 172.612 20.3465 172.552 20.5263L170.038 26.5459L167.504 20.5045C167.441 20.327 167.328 20.1715 167.177 20.0574C167.027 19.9433 166.846 19.8756 166.657 19.8625H165.052C164.791 19.9043 164.552 20.0359 164.379 20.2345C164.28 20.3334 164.201 20.4508 164.148 20.5799C164.094 20.7091 164.067 20.8474 164.067 20.987C164.067 21.0541 164.074 21.1211 164.089 21.1868L164.118 21.3172C164.128 21.3592 164.142 21.4003 164.158 21.4401L168.188 30.4345L164.843 37.9783C164.827 38.015 164.814 38.053 164.804 38.092L164.774 38.2091C164.76 38.2654 164.753 38.3232 164.753 38.3813C164.752 38.666 164.851 38.9421 165.034 39.1613C165.208 39.3717 165.455 39.5096 165.727 39.5476H167.375C167.525 39.5476 167.671 39.4063 167.811 39.3369C168.01 39.2205 168.159 39.0371 168.232 38.8202L175.922 21.4727C175.938 21.4315 175.952 21.389 175.961 21.3456L175.991 21.2236C176.005 21.1469 176.012 21.0691 176.012 20.9911C176.01 20.7181 175.905 20.4557 175.718 20.2554Z" fill="#078BFB"/>
<path d="M142.363 24.7785C142.522 24.7058 142.658 24.5932 142.76 24.4518C142.861 24.3104 142.923 24.1452 142.94 23.9726V23.9433C142.94 23.9099 142.856 23.8764 142.856 23.843C142.797 23.4874 142.699 23.1394 142.564 22.8046C142.23 21.879 141.601 21.0866 140.774 20.5472C139.938 19.9986 138.955 19.7122 137.954 19.7253C137.269 19.7232 136.59 19.8462 135.95 20.0882C134.835 20.4824 133.872 21.2132 133.196 22.1784C132.526 23.1411 132.173 24.2869 132.186 25.4574C132.193 26.2628 132.341 27.0608 132.623 27.816C132.871 28.5809 133.269 29.2896 133.793 29.9017C134.318 30.5139 134.958 31.0174 135.678 31.3835C136.456 31.7628 137.31 31.9604 138.177 31.9612C138.919 31.9586 139.656 31.8328 140.356 31.5891C141.053 31.3516 141.713 31.0197 142.318 30.6026C142.352 30.5783 142.51 30.5524 142.539 30.519C142.75 30.3556 142.895 30.1214 142.945 29.8601V28.6136C142.903 28.3382 142.764 28.0867 142.552 27.9046C142.361 27.7237 142.113 27.6153 141.85 27.5987C141.587 27.582 141.327 27.6581 141.115 27.8135C140.723 28.0913 140.294 28.313 139.84 28.4723C139.344 28.6646 138.809 28.7365 138.279 28.6821C137.792 28.6464 137.326 28.4699 136.938 28.1743C136.551 27.8787 136.259 27.4769 136.098 27.0184L142.229 24.8128C142.275 24.804 142.319 24.7925 142.363 24.7785ZM135.623 24.5277C135.754 23.9788 136.013 23.4684 136.38 23.0379C137.596 21.7303 139.368 23.1215 139.368 23.1215L135.623 24.5277Z" fill="#078BFB"/>
</g>
<defs>
<linearGradient id="paint0_linear_888_515" x1="25.5075" y1="49.98" x2="25.9056" y2="-0.0836603" gradientUnits="userSpaceOnUse">
<stop stop-color="#0193FD"/>
<stop offset="0.156" stop-color="#0198F6"/>
<stop offset="0.372" stop-color="#04A8E4"/>
<stop offset="0.621" stop-color="#07C3C7"/>
<stop offset="0.643" stop-color="#08C6C5"/>
<stop offset="0.885" stop-color="#06E5C4"/>
<stop offset="1" stop-color="#06F6C4"/>
</linearGradient>
<linearGradient id="paint1_linear_888_515" x1="25.8758" y1="17.5656" x2="25.9949" y2="9.21533" gradientUnits="userSpaceOnUse">
<stop stop-color="#0193FD"/>
<stop offset="0.156" stop-color="#0198F6"/>
<stop offset="0.372" stop-color="#04A8E4"/>
<stop offset="0.621" stop-color="#07C3C7"/>
<stop offset="0.643" stop-color="#08C6C5"/>
<stop offset="0.885" stop-color="#06E5C4"/>
<stop offset="1" stop-color="#06F6C4"/>
</linearGradient>
<linearGradient id="paint2_linear_888_515" x1="19.2591" y1="16.2021" x2="19.339" y2="9.94478" gradientUnits="userSpaceOnUse">
<stop stop-color="#0193FD"/>
<stop offset="0.156" stop-color="#0198F6"/>
<stop offset="0.372" stop-color="#04A8E4"/>
<stop offset="0.621" stop-color="#07C3C7"/>
<stop offset="0.643" stop-color="#08C6C5"/>
<stop offset="0.885" stop-color="#06E5C4"/>
<stop offset="1" stop-color="#06F6C4"/>
</linearGradient>
<linearGradient id="paint3_linear_888_515" x1="32.4879" y1="16.2046" x2="32.5678" y2="9.94475" gradientUnits="userSpaceOnUse">
<stop stop-color="#0193FD"/>
<stop offset="0.156" stop-color="#0198F6"/>
<stop offset="0.372" stop-color="#04A8E4"/>
<stop offset="0.621" stop-color="#07C3C7"/>
<stop offset="0.643" stop-color="#08C6C5"/>
<stop offset="0.885" stop-color="#06E5C4"/>
<stop offset="1" stop-color="#06F6C4"/>
</linearGradient>
<linearGradient id="paint4_linear_888_515" x1="40.9345" y1="24.3552" x2="40.9498" y2="21.3539" gradientUnits="userSpaceOnUse">
<stop stop-color="#0193FD"/>
<stop offset="0.156" stop-color="#0198F6"/>
<stop offset="0.372" stop-color="#04A8E4"/>
<stop offset="0.621" stop-color="#07C3C7"/>
<stop offset="0.643" stop-color="#08C6C5"/>
<stop offset="0.885" stop-color="#06E5C4"/>
<stop offset="1" stop-color="#06F6C4"/>
</linearGradient>
<linearGradient id="paint5_linear_888_515" x1="10.3435" y1="24.3541" x2="10.3588" y2="21.3564" gradientUnits="userSpaceOnUse">
<stop stop-color="#0193FD"/>
<stop offset="0.156" stop-color="#0198F6"/>
<stop offset="0.372" stop-color="#04A8E4"/>
<stop offset="0.621" stop-color="#07C3C7"/>
<stop offset="0.643" stop-color="#08C6C5"/>
<stop offset="0.885" stop-color="#06E5C4"/>
<stop offset="1" stop-color="#06F6C4"/>
</linearGradient>
<linearGradient id="paint6_linear_888_515" x1="34.3279" y1="35.0004" x2="34.369" y2="30.9129" gradientUnits="userSpaceOnUse">
<stop stop-color="#0193FD"/>
<stop offset="0.156" stop-color="#0198F6"/>
<stop offset="0.372" stop-color="#04A8E4"/>
<stop offset="0.621" stop-color="#07C3C7"/>
<stop offset="0.643" stop-color="#08C6C5"/>
<stop offset="0.885" stop-color="#06E5C4"/>
<stop offset="1" stop-color="#06F6C4"/>
</linearGradient>
<linearGradient id="paint7_linear_888_515" x1="18.4154" y1="34.9748" x2="18.4549" y2="30.9418" gradientUnits="userSpaceOnUse">
<stop stop-color="#0193FD"/>
<stop offset="0.156" stop-color="#0198F6"/>
<stop offset="0.372" stop-color="#04A8E4"/>
<stop offset="0.621" stop-color="#07C3C7"/>
<stop offset="0.643" stop-color="#08C6C5"/>
<stop offset="0.885" stop-color="#06E5C4"/>
<stop offset="1" stop-color="#06F6C4"/>
</linearGradient>
<linearGradient id="paint8_linear_888_515" x1="36.3261" y1="22.534" x2="36.3993" y2="14.8495" gradientUnits="userSpaceOnUse">
<stop stop-color="#0193FD"/>
<stop offset="0.156" stop-color="#0198F6"/>
<stop offset="0.372" stop-color="#04A8E4"/>
<stop offset="0.621" stop-color="#07C3C7"/>
<stop offset="0.643" stop-color="#08C6C5"/>
<stop offset="0.885" stop-color="#06E5C4"/>
<stop offset="1" stop-color="#06F6C4"/>
</linearGradient>
<linearGradient id="paint9_linear_888_515" x1="39.8834" y1="31.0213" x2="39.9041" y2="26.4613" gradientUnits="userSpaceOnUse">
<stop stop-color="#0193FD"/>
<stop offset="0.156" stop-color="#0198F6"/>
<stop offset="0.372" stop-color="#04A8E4"/>
<stop offset="0.621" stop-color="#07C3C7"/>
<stop offset="0.643" stop-color="#08C6C5"/>
<stop offset="0.885" stop-color="#06E5C4"/>
<stop offset="1" stop-color="#06F6C4"/>
</linearGradient>
<linearGradient id="paint10_linear_888_515" x1="11.4652" y1="31.0213" x2="11.4859" y2="26.4613" gradientUnits="userSpaceOnUse">
<stop stop-color="#0193FD"/>
<stop offset="0.156" stop-color="#0198F6"/>
<stop offset="0.372" stop-color="#04A8E4"/>
<stop offset="0.621" stop-color="#07C3C7"/>
<stop offset="0.643" stop-color="#08C6C5"/>
<stop offset="0.885" stop-color="#06E5C4"/>
<stop offset="1" stop-color="#06F6C4"/>
</linearGradient>
<linearGradient id="paint11_linear_888_515" x1="15.4816" y1="22.6469" x2="15.5547" y2="14.9624" gradientUnits="userSpaceOnUse">
<stop stop-color="#0193FD"/>
<stop offset="0.156" stop-color="#0198F6"/>
<stop offset="0.372" stop-color="#04A8E4"/>
<stop offset="0.621" stop-color="#07C3C7"/>
<stop offset="0.643" stop-color="#08C6C5"/>
<stop offset="0.885" stop-color="#06E5C4"/>
<stop offset="1" stop-color="#06F6C4"/>
</linearGradient>
<clipPath id="clip0_888_515">
<rect width="176" height="51" fill="white"/>
</clipPath>
</defs>
</svg>
