<svg width="57" height="50" viewBox="0 0 57 50" fill="none" xmlns="http://www.w3.org/2000/svg">
<path d="M8.26873 0C3.70801 0 0 3.73698 0 8.33333V41.6667C0 46.263 3.70801 50 8.26873 50H48.708C53.2687 50 56.9767 46.263 56.9767 41.6667V8.33333C56.9767 3.73698 53.2687 0 48.708 0H8.26873ZM35.1421 16.6667H46.6408C47.7778 16.6667 48.708 17.6042 48.708 18.75C48.708 19.8958 47.7778 20.8333 46.6408 20.8333H35.1421C34.0052 20.8333 33.0749 19.8958 33.0749 18.75C33.0749 17.6042 34.0052 16.6667 35.1421 16.6667ZM33.0749 31.25C33.0749 30.1042 34.0052 29.1667 35.1421 29.1667H46.6408C47.7778 29.1667 48.708 30.1042 48.708 31.25C48.708 32.3958 47.7778 33.3333 46.6408 33.3333H35.1421C34.0052 33.3333 33.0749 32.3958 33.0749 31.25ZM21.2016 12.5V13.3203C22.0543 13.4766 23.3463 13.737 23.9147 13.8932C25.2972 14.2578 26.1111 15.6901 25.7494 17.0833C25.3876 18.4766 23.9664 19.2969 22.584 18.9323C22.093 18.8021 20.3359 18.4505 19.7804 18.3724C18.2041 18.125 16.9121 18.3333 16.0853 18.7109C15.2713 19.0885 15.0646 19.5182 15.0258 19.7656C14.9483 20.2083 15.0258 20.3776 15.0388 20.4167C15.0775 20.4818 15.168 20.651 15.5039 20.8724C16.292 21.4193 17.5323 21.8099 19.3669 22.3568L19.4703 22.3828C21.0336 22.8646 23.1266 23.4896 24.6899 24.6484C25.5556 25.2865 26.3695 26.1328 26.8734 27.3177C27.3902 28.5026 27.4935 29.8047 27.261 31.1458C26.8346 33.6198 25.2067 35.3125 23.1783 36.1849C22.5452 36.4583 21.8863 36.6536 21.1886 36.7839V37.5C21.1886 38.9453 20.0258 40.1172 18.5917 40.1172C17.1576 40.1172 15.9948 38.9453 15.9948 37.5V36.6667C14.7674 36.3802 13.1654 35.8333 12.1447 35.4818C11.9251 35.4036 11.7313 35.3385 11.5762 35.2865C10.2196 34.8307 9.49613 33.3594 9.9354 31.9922C10.3747 30.625 11.8475 29.8958 13.2041 30.3385C13.4625 30.4297 13.7339 30.5208 14.031 30.612C15.2584 31.0286 16.6408 31.5104 17.416 31.6406C19.0698 31.901 20.3488 31.7318 21.137 31.3932C21.8475 31.0937 22.093 30.7031 22.1705 30.2474C22.261 29.7266 22.1835 29.4792 22.1447 29.375C22.093 29.2578 21.9767 29.0885 21.6667 28.8542C20.9044 28.2943 19.6899 27.8776 17.8811 27.3307L17.5969 27.2396C16.0853 26.7839 14.1085 26.1849 12.6098 25.1562C11.7571 24.5703 10.9044 23.763 10.3747 22.6172C9.83204 21.4453 9.70284 20.1693 9.9354 18.8411C10.3488 16.4583 12.0284 14.8177 13.9535 13.9323C14.5995 13.6328 15.2842 13.4115 16.0078 13.2682V12.487C16.0078 11.0417 17.1705 9.86979 18.6047 9.86979C20.0388 9.86979 21.2016 11.0417 21.2016 12.487V12.5Z" fill="#078BFB"/>
</svg>
