<svg width="62" height="50" viewBox="0 0 62 50" fill="none" xmlns="http://www.w3.org/2000/svg">
<path d="M13.95 15.625C9.66812 15.625 6.2 12.1289 6.2 7.8125C6.2 3.49609 9.66812 0 13.95 0C18.2319 0 21.7 3.49609 21.7 7.8125C21.7 12.1289 18.2319 15.625 13.95 15.625ZM49.6 15.625C45.3181 15.625 41.85 12.1289 41.85 7.8125C41.85 3.49609 45.3181 0 49.6 0C53.8819 0 57.35 3.49609 57.35 7.8125C57.35 12.1289 53.8819 15.625 49.6 15.625ZM0 29.1699C0 23.418 4.63062 18.75 10.3366 18.75H14.4731C16.0134 18.75 17.4762 19.0918 18.7937 19.6973C18.6678 20.4004 18.6097 21.1328 18.6097 21.875C18.6097 25.6055 20.2372 28.9551 22.8044 31.25C22.785 31.25 22.7656 31.25 22.7366 31.25H2.06344C0.93 31.25 0 30.3125 0 29.1699ZM39.2634 31.25C39.2441 31.25 39.2247 31.25 39.1956 31.25C41.7725 28.9551 43.3903 25.6055 43.3903 21.875C43.3903 21.1328 43.3225 20.4102 43.2062 19.6973C44.5238 19.082 45.9866 18.75 47.5269 18.75H51.6634C57.3694 18.75 62 23.418 62 29.1699C62 30.3223 61.07 31.25 59.9366 31.25H39.2634ZM40.3 21.875C40.3 27.0508 36.1344 31.25 31 31.25C25.8656 31.25 21.7 27.0508 21.7 21.875C21.7 16.6992 25.8656 12.5 31 12.5C36.1344 12.5 40.3 16.6992 40.3 21.875ZM12.4 47.3926C12.4 40.2051 18.1834 34.375 25.3134 34.375H36.6866C43.8166 34.375 49.6 40.2051 49.6 47.3926C49.6 48.8281 48.4472 50 47.0134 50H14.9866C13.5625 50 12.4 48.8379 12.4 47.3926Z" fill="#078BFB"/>
</svg>
