<svg width="450" height="41" viewBox="0 0 450 41" fill="none" xmlns="http://www.w3.org/2000/svg">
<path d="M49.592 12.152V29H45.488V12.152H49.592ZM60.7261 15.464C62.2941 15.464 63.5421 15.976 64.4701 17C65.4141 18.008 65.8861 19.4 65.8861 21.176V29H61.8061V21.728C61.8061 20.832 61.5741 20.136 61.1101 19.64C60.6461 19.144 60.0221 18.896 59.2381 18.896C58.4541 18.896 57.8301 19.144 57.3661 19.64C56.9021 20.136 56.6701 20.832 56.6701 21.728V29H52.5661V15.608H56.6701V17.384C57.0861 16.792 57.6461 16.328 58.3501 15.992C59.0541 15.64 59.8461 15.464 60.7261 15.464ZM74.186 29.192C73.018 29.192 71.978 28.992 71.066 28.592C70.154 28.192 69.434 27.648 68.906 26.96C68.378 26.256 68.082 25.472 68.018 24.608H72.074C72.122 25.072 72.338 25.448 72.722 25.736C73.106 26.024 73.578 26.168 74.138 26.168C74.65 26.168 75.042 26.072 75.314 25.88C75.602 25.672 75.746 25.408 75.746 25.088C75.746 24.704 75.546 24.424 75.146 24.248C74.746 24.056 74.098 23.848 73.202 23.624C72.242 23.4 71.442 23.168 70.802 22.928C70.162 22.672 69.61 22.28 69.146 21.752C68.682 21.208 68.45 20.48 68.45 19.568C68.45 18.8 68.658 18.104 69.074 17.48C69.506 16.84 70.13 16.336 70.946 15.968C71.778 15.6 72.762 15.416 73.898 15.416C75.578 15.416 76.898 15.832 77.858 16.664C78.834 17.496 79.394 18.6 79.538 19.976H75.746C75.682 19.512 75.474 19.144 75.122 18.872C74.786 18.6 74.338 18.464 73.778 18.464C73.298 18.464 72.93 18.56 72.674 18.752C72.418 18.928 72.29 19.176 72.29 19.496C72.29 19.88 72.49 20.168 72.89 20.36C73.306 20.552 73.946 20.744 74.81 20.936C75.802 21.192 76.61 21.448 77.234 21.704C77.858 21.944 78.402 22.344 78.866 22.904C79.346 23.448 79.594 24.184 79.61 25.112C79.61 25.896 79.386 26.6 78.938 27.224C78.506 27.832 77.874 28.312 77.042 28.664C76.226 29.016 75.274 29.192 74.186 29.192ZM86.2248 17.504C86.6248 16.88 87.1768 16.376 87.8808 15.992C88.5848 15.608 89.4088 15.416 90.3528 15.416C91.4568 15.416 92.4568 15.696 93.3528 16.256C94.2488 16.816 94.9528 17.616 95.4648 18.656C95.9928 19.696 96.2568 20.904 96.2568 22.28C96.2568 23.656 95.9928 24.872 95.4648 25.928C94.9528 26.968 94.2488 27.776 93.3528 28.352C92.4568 28.912 91.4568 29.192 90.3528 29.192C89.4248 29.192 88.6008 29 87.8808 28.616C87.1768 28.232 86.6248 27.736 86.2248 27.128V35.384H82.1208V15.608H86.2248V17.504ZM92.0808 22.28C92.0808 21.256 91.7928 20.456 91.2168 19.88C90.6568 19.288 89.9608 18.992 89.1288 18.992C88.3128 18.992 87.6168 19.288 87.0408 19.88C86.4808 20.472 86.2008 21.28 86.2008 22.304C86.2008 23.328 86.4808 24.136 87.0408 24.728C87.6168 25.32 88.3128 25.616 89.1288 25.616C89.9448 25.616 90.6408 25.32 91.2168 24.728C91.7928 24.12 92.0808 23.304 92.0808 22.28ZM100.474 14.216C99.7539 14.216 99.1619 14.008 98.6979 13.592C98.2499 13.16 98.0259 12.632 98.0259 12.008C98.0259 11.368 98.2499 10.84 98.6979 10.424C99.1619 9.992 99.7539 9.776 100.474 9.776C101.178 9.776 101.754 9.992 102.202 10.424C102.666 10.84 102.898 11.368 102.898 12.008C102.898 12.632 102.666 13.16 102.202 13.592C101.754 14.008 101.178 14.216 100.474 14.216ZM102.514 15.608V29H98.4099V15.608H102.514ZM109.592 17.84C110.072 17.104 110.672 16.528 111.392 16.112C112.112 15.68 112.912 15.464 113.792 15.464V19.808H112.664C111.64 19.808 110.872 20.032 110.36 20.48C109.848 20.912 109.592 21.68 109.592 22.784V29H105.488V15.608H109.592V17.84ZM114.938 22.28C114.938 20.904 115.194 19.696 115.706 18.656C116.234 17.616 116.946 16.816 117.842 16.256C118.738 15.696 119.738 15.416 120.842 15.416C121.786 15.416 122.61 15.608 123.314 15.992C124.034 16.376 124.586 16.88 124.97 17.504V15.608H129.074V29H124.97V27.104C124.57 27.728 124.01 28.232 123.29 28.616C122.586 29 121.762 29.192 120.818 29.192C119.73 29.192 118.738 28.912 117.842 28.352C116.946 27.776 116.234 26.968 115.706 25.928C115.194 24.872 114.938 23.656 114.938 22.28ZM124.97 22.304C124.97 21.28 124.682 20.472 124.106 19.88C123.546 19.288 122.858 18.992 122.042 18.992C121.226 18.992 120.53 19.288 119.954 19.88C119.394 20.456 119.114 21.256 119.114 22.28C119.114 23.304 119.394 24.12 119.954 24.728C120.53 25.32 121.226 25.616 122.042 25.616C122.858 25.616 123.546 25.32 124.106 24.728C124.682 24.136 124.97 23.328 124.97 22.304ZM149.131 15.464C150.795 15.464 152.115 15.968 153.091 16.976C154.083 17.984 154.579 19.384 154.579 21.176V29H150.499V21.728C150.499 20.864 150.267 20.2 149.803 19.736C149.355 19.256 148.731 19.016 147.931 19.016C147.131 19.016 146.499 19.256 146.035 19.736C145.587 20.2 145.363 20.864 145.363 21.728V29H141.283V21.728C141.283 20.864 141.051 20.2 140.587 19.736C140.139 19.256 139.515 19.016 138.715 19.016C137.915 19.016 137.283 19.256 136.819 19.736C136.371 20.2 136.147 20.864 136.147 21.728V29H132.043V15.608H136.147V17.288C136.563 16.728 137.107 16.288 137.779 15.968C138.451 15.632 139.211 15.464 140.059 15.464C141.067 15.464 141.963 15.68 142.747 16.112C143.547 16.544 144.171 17.16 144.619 17.96C145.083 17.224 145.715 16.624 146.515 16.16C147.315 15.696 148.187 15.464 149.131 15.464ZM163.545 29.192C162.233 29.192 161.049 28.912 159.993 28.352C158.953 27.792 158.129 26.992 157.521 25.952C156.929 24.912 156.633 23.696 156.633 22.304C156.633 20.928 156.937 19.72 157.545 18.68C158.153 17.624 158.985 16.816 160.041 16.256C161.097 15.696 162.281 15.416 163.593 15.416C164.905 15.416 166.089 15.696 167.145 16.256C168.201 16.816 169.033 17.624 169.641 18.68C170.249 19.72 170.553 20.928 170.553 22.304C170.553 23.68 170.241 24.896 169.617 25.952C169.009 26.992 168.169 27.792 167.097 28.352C166.041 28.912 164.857 29.192 163.545 29.192ZM163.545 25.64C164.329 25.64 164.993 25.352 165.537 24.776C166.097 24.2 166.377 23.376 166.377 22.304C166.377 21.232 166.105 20.408 165.561 19.832C165.033 19.256 164.377 18.968 163.593 18.968C162.793 18.968 162.129 19.256 161.601 19.832C161.073 20.392 160.809 21.216 160.809 22.304C160.809 23.376 161.065 24.2 161.577 24.776C162.105 25.352 162.761 25.64 163.545 25.64ZM178.178 29.192C177.01 29.192 175.97 28.992 175.058 28.592C174.146 28.192 173.426 27.648 172.898 26.96C172.37 26.256 172.074 25.472 172.01 24.608H176.066C176.114 25.072 176.33 25.448 176.714 25.736C177.098 26.024 177.57 26.168 178.13 26.168C178.642 26.168 179.034 26.072 179.306 25.88C179.594 25.672 179.738 25.408 179.738 25.088C179.738 24.704 179.538 24.424 179.138 24.248C178.738 24.056 178.09 23.848 177.194 23.624C176.234 23.4 175.434 23.168 174.794 22.928C174.154 22.672 173.602 22.28 173.138 21.752C172.674 21.208 172.442 20.48 172.442 19.568C172.442 18.8 172.65 18.104 173.066 17.48C173.498 16.84 174.122 16.336 174.938 15.968C175.77 15.6 176.754 15.416 177.89 15.416C179.57 15.416 180.89 15.832 181.85 16.664C182.826 17.496 183.386 18.6 183.53 19.976H179.738C179.674 19.512 179.466 19.144 179.114 18.872C178.778 18.6 178.33 18.464 177.77 18.464C177.29 18.464 176.922 18.56 176.666 18.752C176.41 18.928 176.282 19.176 176.282 19.496C176.282 19.88 176.482 20.168 176.882 20.36C177.298 20.552 177.938 20.744 178.802 20.936C179.794 21.192 180.602 21.448 181.226 21.704C181.85 21.944 182.394 22.344 182.858 22.904C183.338 23.448 183.586 24.184 183.602 25.112C183.602 25.896 183.378 26.6 182.93 27.224C182.498 27.832 181.866 28.312 181.034 28.664C180.218 29.016 179.266 29.192 178.178 29.192ZM190.383 22.304C190.383 20.912 190.663 19.696 191.223 18.656C191.799 17.616 192.591 16.816 193.599 16.256C194.623 15.696 195.791 15.416 197.103 15.416C198.783 15.416 200.183 15.856 201.303 16.736C202.439 17.616 203.183 18.856 203.535 20.456H199.167C198.799 19.432 198.087 18.92 197.031 18.92C196.279 18.92 195.679 19.216 195.231 19.808C194.783 20.384 194.559 21.216 194.559 22.304C194.559 23.392 194.783 24.232 195.231 24.824C195.679 25.4 196.279 25.688 197.031 25.688C198.087 25.688 198.799 25.176 199.167 24.152H203.535C203.183 25.72 202.439 26.952 201.303 27.848C200.167 28.744 198.767 29.192 197.103 29.192C195.791 29.192 194.623 28.912 193.599 28.352C192.591 27.792 191.799 26.992 191.223 25.952C190.663 24.912 190.383 23.696 190.383 22.304ZM211.826 29.192C210.514 29.192 209.33 28.912 208.274 28.352C207.234 27.792 206.41 26.992 205.802 25.952C205.21 24.912 204.914 23.696 204.914 22.304C204.914 20.928 205.218 19.72 205.826 18.68C206.434 17.624 207.266 16.816 208.322 16.256C209.378 15.696 210.562 15.416 211.874 15.416C213.186 15.416 214.37 15.696 215.426 16.256C216.482 16.816 217.314 17.624 217.922 18.68C218.53 19.72 218.834 20.928 218.834 22.304C218.834 23.68 218.522 24.896 217.898 25.952C217.29 26.992 216.45 27.792 215.378 28.352C214.322 28.912 213.138 29.192 211.826 29.192ZM211.826 25.64C212.61 25.64 213.274 25.352 213.818 24.776C214.378 24.2 214.658 23.376 214.658 22.304C214.658 21.232 214.386 20.408 213.842 19.832C213.314 19.256 212.658 18.968 211.874 18.968C211.074 18.968 210.41 19.256 209.882 19.832C209.354 20.392 209.09 21.216 209.09 22.304C209.09 23.376 209.346 24.2 209.858 24.776C210.386 25.352 211.042 25.64 211.826 25.64ZM229.171 15.464C230.739 15.464 231.987 15.976 232.915 17C233.859 18.008 234.331 19.4 234.331 21.176V29H230.251V21.728C230.251 20.832 230.019 20.136 229.555 19.64C229.091 19.144 228.467 18.896 227.683 18.896C226.899 18.896 226.275 19.144 225.811 19.64C225.347 20.136 225.115 20.832 225.115 21.728V29H221.011V15.608H225.115V17.384C225.531 16.792 226.091 16.328 226.795 15.992C227.499 15.64 228.291 15.464 229.171 15.464ZM243.903 19.016H241.695V29H237.591V19.016H236.103V15.608H237.591V15.224C237.591 13.576 238.063 12.328 239.007 11.48C239.951 10.616 241.335 10.184 243.159 10.184C243.463 10.184 243.687 10.192 243.831 10.208V13.688C243.047 13.64 242.495 13.752 242.175 14.024C241.855 14.296 241.695 14.784 241.695 15.488V15.608H243.903V19.016ZM247.896 14.216C247.176 14.216 246.584 14.008 246.12 13.592C245.672 13.16 245.448 12.632 245.448 12.008C245.448 11.368 245.672 10.84 246.12 10.424C246.584 9.992 247.176 9.776 247.896 9.776C248.6 9.776 249.176 9.992 249.624 10.424C250.088 10.84 250.32 11.368 250.32 12.008C250.32 12.632 250.088 13.16 249.624 13.592C249.176 14.008 248.6 14.216 247.896 14.216ZM249.936 15.608V29H245.832V15.608H249.936ZM252.094 22.28C252.094 20.904 252.35 19.696 252.862 18.656C253.39 17.616 254.102 16.816 254.998 16.256C255.894 15.696 256.894 15.416 257.998 15.416C258.942 15.416 259.766 15.608 260.47 15.992C261.19 16.376 261.742 16.88 262.126 17.504V15.608H266.23V29H262.126V27.104C261.726 27.728 261.166 28.232 260.446 28.616C259.742 29 258.918 29.192 257.974 29.192C256.886 29.192 255.894 28.912 254.998 28.352C254.102 27.776 253.39 26.968 252.862 25.928C252.35 24.872 252.094 23.656 252.094 22.28ZM262.126 22.304C262.126 21.28 261.838 20.472 261.262 19.88C260.702 19.288 260.014 18.992 259.198 18.992C258.382 18.992 257.686 19.288 257.11 19.88C256.55 20.456 256.27 21.256 256.27 22.28C256.27 23.304 256.55 24.12 257.11 24.728C257.686 25.32 258.382 25.616 259.198 25.616C260.014 25.616 260.702 25.32 261.262 24.728C261.838 24.136 262.126 23.328 262.126 22.304ZM277.359 15.464C278.927 15.464 280.175 15.976 281.103 17C282.047 18.008 282.519 19.4 282.519 21.176V29H278.439V21.728C278.439 20.832 278.207 20.136 277.743 19.64C277.279 19.144 276.655 18.896 275.871 18.896C275.087 18.896 274.463 19.144 273.999 19.64C273.535 20.136 273.303 20.832 273.303 21.728V29H269.199V15.608H273.303V17.384C273.719 16.792 274.279 16.328 274.983 15.992C275.687 15.64 276.479 15.464 277.359 15.464ZM289.211 25.616H295.019V29H284.627V25.736L290.195 18.992H284.675V15.608H294.899V18.872L289.211 25.616ZM296.461 22.28C296.461 20.904 296.717 19.696 297.229 18.656C297.757 17.616 298.469 16.816 299.365 16.256C300.261 15.696 301.261 15.416 302.365 15.416C303.309 15.416 304.133 15.608 304.837 15.992C305.557 16.376 306.109 16.88 306.493 17.504V15.608H310.597V29H306.493V27.104C306.093 27.728 305.533 28.232 304.813 28.616C304.109 29 303.285 29.192 302.341 29.192C301.253 29.192 300.261 28.912 299.365 28.352C298.469 27.776 297.757 26.968 297.229 25.928C296.717 24.872 296.461 23.656 296.461 22.28ZM306.493 22.304C306.493 21.28 306.205 20.472 305.629 19.88C305.069 19.288 304.381 18.992 303.565 18.992C302.749 18.992 302.053 19.288 301.477 19.88C300.917 20.456 300.637 21.256 300.637 22.28C300.637 23.304 300.917 24.12 301.477 24.728C302.053 25.32 302.749 25.616 303.565 25.616C304.381 25.616 305.069 25.32 305.629 24.728C306.205 24.136 306.493 23.328 306.493 22.304Z" fill="#63CB75"/>
<path fill-rule="evenodd" clip-rule="evenodd" d="M16.8934 3.93345C16.6134 3.80462 16.3067 3.73682 16 3.73682C15.6934 3.73682 15.3867 3.80462 15.1134 3.93345L2.55336 9.35108C1.0867 9.98167 -0.00663634 11.453 3.03233e-05 13.2295C0.0333636 19.9558 2.75336 32.2624 14.2334 37.8564C15.3467 38.3988 16.64 38.3988 17.7534 37.8564C29.2467 32.2624 31.9667 19.9558 32 13.2295C32.0067 11.453 30.9133 9.98167 29.4467 9.35108L16.8934 3.93345ZM8.93135 22.6899L12.9254 26.7917C13.6056 27.4903 14.7164 27.4903 15.3967 26.7917L23.3847 18.5881C24.0649 17.8895 24.0649 16.7487 23.3847 16.0501C22.7045 15.3515 21.5936 15.3515 20.9134 16.0501L14.161 22.9847L11.4027 20.1519C10.7224 19.4533 9.61158 19.4533 8.93135 20.1519C8.25112 20.8505 8.25112 21.9913 8.93135 22.6899Z" fill="#63CB75"/>
</svg>
